<?xml version="1.0" encoding="utf-8"?>
<!-- Generator: Adobe Illustrator 17.0.0, SVG Export Plug-In . SVG Version: 6.00 Build 0)  -->
<!DOCTYPE svg PUBLIC "-//W3C//DTD SVG 1.1//EN" "http://www.w3.org/Graphics/SVG/1.1/DTD/svg11.dtd">
<svg version="1.1" id="Capa_1" xmlns="http://www.w3.org/2000/svg" xmlns:xlink="http://www.w3.org/1999/xlink" x="0px" y="0px"
	 width="41.757px" height="37.716px" viewBox="82.243 80.284 41.757 37.716" enable-background="new 82.243 80.284 41.757 37.716"
	 xml:space="preserve">
<g>
	<path fill="#FFFFFF" d="M119.959,80.284H86.284c-2.223,0-4.041,1.818-4.041,4.041c0,2.223,1.818,4.041,4.041,4.041h33.675
		c2.223,0,4.041-1.818,4.041-4.041C124,82.103,122.182,80.284,119.959,80.284z"/>
	<path fill="#FFFFFF" d="M119.959,95.101H86.284c-2.223,0-4.041,1.818-4.041,4.041s1.818,4.041,4.041,4.041h33.675
		c2.223,0,4.041-1.818,4.041-4.041S122.182,95.101,119.959,95.101z"/>
	<path fill="#FFFFFF" d="M119.959,109.918H86.284c-2.223,0-4.041,1.818-4.041,4.041c0,2.223,1.818,4.041,4.041,4.041h33.675
		c2.223,0,4.041-1.818,4.041-4.041C124,111.736,122.182,109.918,119.959,109.918z"/>
</g>
</svg>
