<?xml version="1.0" encoding="utf-8"?>
<!-- Generator: Adobe Illustrator 17.0.0, SVG Export Plug-In . SVG Version: 6.00 Build 0)  -->
<!DOCTYPE svg PUBLIC "-//W3C//DTD SVG 1.1//EN" "http://www.w3.org/Graphics/SVG/1.1/DTD/svg11.dtd">
<svg version="1.1" id="Capa_1" xmlns="http://www.w3.org/2000/svg" xmlns:xlink="http://www.w3.org/1999/xlink" x="0px" y="0px"
	 width="166px" height="50px" viewBox="0 0 166 50" enable-background="new 0 0 166 50" xml:space="preserve">
<g>
	<path fill="#FFFFFF" d="M53.296,2.53H9.383c-1.676,0-3.045,1.371-3.045,3.043v31.573c0,1.669,1.369,3.043,3.045,3.043h43.913
		c1.674,0,3.043-1.373,3.043-3.043V5.572C56.338,3.901,54.969,2.53,53.296,2.53z M52.53,34.908H10.147V6.797H52.53V34.908z"/>
	<polygon fill="#FFFFFF" points="25.705,41.632 19.959,47.47 42.801,47.47 37.055,41.632 	"/>
	<path fill="#FFFFFF" d="M16.618,29.271c1.122,0,2.036-0.912,2.036-2.034c0-0.204-0.06-0.388-0.116-0.575
		c2.603-2.098,7.201-5.798,9.297-7.413c0.33,0.234,0.715,0.401,1.15,0.401c0.363,0,0.684-0.12,0.978-0.285
		c1.347,1.146,3.639,3.094,5.265,4.478c-0.021,0.118-0.069,0.223-0.069,0.348c0,1.124,0.914,2.036,2.038,2.036
		c1.124,0,2.038-0.912,2.038-2.036c0-0.2-0.06-0.382-0.114-0.564l5.265-4.755c0.283,0.148,0.588,0.253,0.931,0.253
		c1.124,0,2.036-0.912,2.036-2.036c0-1.124-0.912-2.036-2.036-2.036c-1.124,0-2.034,0.912-2.034,2.038
		c0,0.268,0.058,0.524,0.152,0.757c-1.472,1.328-3.742,3.379-5.158,4.658c-0.315-0.204-0.672-0.354-1.079-0.354
		c-0.481,0-0.901,0.191-1.249,0.468c-1.345-1.144-3.521-2.993-5.068-4.308c0.082-0.219,0.139-0.448,0.139-0.697
		c0-1.124-0.912-2.036-2.036-2.036s-2.036,0.912-2.036,2.036c0,0.249,0.06,0.481,0.142,0.699l-9.346,7.272
		c-0.326-0.223-0.702-0.386-1.126-0.386c-1.124,0-2.036,0.912-2.036,2.036C14.582,28.359,15.494,29.271,16.618,29.271z"/>
</g>
<text transform="matrix(1 0 0 1 66.5881 37.75)" fill="#FFFFFF" font-family="'OSP-DIN'" font-size="33">LOGOTIPO</text>
</svg>
